<?xml version="1.0" encoding="utf-8"?>
<!-- Generator: Adobe Illustrator 16.0.0, SVG Export Plug-In . SVG Version: 6.00 Build 0)  -->
<!DOCTYPE svg PUBLIC "-//W3C//DTD SVG 1.1//EN" "http://www.w3.org/Graphics/SVG/1.1/DTD/svg11.dtd">
<svg version="1.1" id="Capa_1" xmlns="http://www.w3.org/2000/svg" xmlns:xlink="http://www.w3.org/1999/xlink" x="0px" y="0px"
	 width="24px" height="24px" viewBox="0 0 24 24" enable-background="new 0 0 24 24" xml:space="preserve">
<circle fill="#FFFFFF" stroke="#FFFFFF" stroke-miterlimit="10" cx="12.001" cy="10.25" r="9"/>
<g id="Capa_1_1_" display="none">
	<circle display="inline" fill="#9A7D22" cx="12" cy="10.4" r="10"/>
</g>
<g id="Capa_3">
	<path fill="#B5343A" d="M11.997,0.001L11.997,0.001c-5.66-0.085-10.315,4.434-10.4,10.093c0,0.044,0,0.089,0,0.133
		c0,3.126,1.311,5.527,3.563,7.753c2.972,2.929,5.813,5.599,5.813,5.599c0.311,0.3,0.736,0.45,1.167,0.412v-0.412l0,0V24
		c0.367-0.079,0.715-0.232,1.021-0.455c0,0,2.741-2.74,5.696-5.652c2.254-2.221,3.547-4.533,3.547-7.677
		C22.376,4.547,17.759-0.027,12.09,0C12.06,0,12.028,0,11.997,0.001z M11.997,19c-4.946,0.003-8.957-4.004-8.959-8.949
		c-0.003-4.945,4.003-8.956,8.948-8.959c4.944-0.002,8.956,4.003,8.958,8.949c0,0.003,0,0.007,0,0.011
		C20.939,14.995,16.936,19,11.991,19H11.997z"/>
</g>
<g>
	<path fill="#B5343A" d="M8.771,10.364h1.459c-0.009-0.147-0.009-0.294,0-0.442c0-0.081,0-0.163,0.026-0.244H8.771V9.457
		c0-0.429,0.134-0.533,0.529-0.845c0.253-0.195,0.492-0.408,0.716-0.637c0.425-0.44,0.709-0.994,0.821-1.591
		c-0.263,0.002-0.533,0.01-0.802,0C9.938,6.775,9.739,7.136,9.456,7.429C9.26,7.627,9.049,7.812,8.826,7.981
		C8.39,8.339,8,8.641,8,9.443v4.926c0.262-0.131,0.518-0.279,0.771-0.428V10.364z"/>
	<path fill="#B5343A" d="M15.217,10.364h-1.461c0.012-0.147,0.012-0.294,0-0.442c0-0.081,0-0.163-0.025-0.244h1.486V9.457
		c0-0.429-0.133-0.533-0.529-0.845c-0.254-0.195-0.492-0.408-0.715-0.637c-0.426-0.44-0.711-0.994-0.822-1.591
		c0.263,0.002,0.533,0.01,0.804,0c0.098,0.392,0.295,0.752,0.578,1.045c0.196,0.198,0.407,0.383,0.631,0.552
		c0.437,0.358,0.825,0.66,0.825,1.462v4.926c-0.264-0.131-0.518-0.279-0.771-0.428L15.217,10.364L15.217,10.364z"/>
	<path fill="#B5343A" d="M14.791,14.949c-0.035-0.227-0.066-0.457-0.092-0.686H9.38c0.026,0.229,0.05,0.461,0.08,0.686H14.791z"/>
	<path fill="#B5343A" d="M15.215,13.607v0.656h-0.516c0.025,0.229,0.057,0.459,0.092,0.686h0.424v0.193
		c0,0.521-0.422,0.942-0.945,0.944H9.72c-0.522-0.002-0.944-0.424-0.946-0.944v-0.193H9.46c-0.03-0.225-0.054-0.455-0.08-0.686
		H8.771v-0.322C8.518,14.09,8.262,14.238,8,14.369v0.773c-0.002,0.946,0.765,1.717,1.713,1.719c0.001,0,0.002,0,0.004,0h4.568
		c0.945,0,1.715-0.769,1.715-1.717c0,0,0,0,0-0.002V13.21C15.756,13.373,15.492,13.508,15.215,13.607z"/>
	<path fill="#B5343A" d="M10.837,6.384c0.018-0.094,0.031-0.189,0.04-0.285h2.25c0.014,0.125,0.035,0.249,0.064,0.371
		c0.256-0.053,0.518-0.078,0.781-0.075c-0.025-0.097-0.046-0.196-0.058-0.295h0.813c0.283,0,0.516-0.229,0.518-0.514v-1.69
		c0-0.555-0.449-1.005-1.006-1.005H9.765c-0.555,0-1.004,0.45-1.004,1.005v1.7C8.766,5.876,8.994,6.1,9.275,6.1h0.813
		c-0.011,0.096-0.029,0.191-0.052,0.285C10.304,6.394,10.574,6.386,10.837,6.384z M13.875,3.585h0.365
		c0.174,0.009,0.311,0.152,0.311,0.325v1.519h-0.676V3.585z M12.753,3.585h0.735v1.828h-0.735V3.585z M11.641,3.585h0.73v1.828
		h-0.73V3.585z M10.52,3.585h0.734v1.828h-0.741L10.52,3.585z M10.148,5.396L9.463,5.413V3.895c0-0.18,0.146-0.325,0.324-0.325
		h0.361V5.396z"/>
	<path fill="#B5343A" d="M14.791,10.351c-0.035-0.228-0.066-0.457-0.092-0.685H9.38c0.026,0.229,0.05,0.461,0.08,0.685H14.791z"/>
</g>
<polygon fill="#B5343A" stroke="#FFFFFF" stroke-width="0.25" stroke-miterlimit="10" points="10.937,13.541 10.937,14.389 
	13.064,14.389 13.064,12.954 14.5,12.954 14.5,10.82 13.064,10.82 13.064,9.389 10.937,9.389 10.937,10.82 9.5,10.82 9.5,12.954 
	10.937,12.954 "/>
</svg>
