<?xml version="1.0" encoding="utf-8"?>
<!-- Generator: Adobe Illustrator 16.0.0, SVG Export Plug-In . SVG Version: 6.00 Build 0)  -->
<!DOCTYPE svg PUBLIC "-//W3C//DTD SVG 1.1//EN" "http://www.w3.org/Graphics/SVG/1.1/DTD/svg11.dtd">
<svg version="1.1" id="Capa_1" xmlns="http://www.w3.org/2000/svg" xmlns:xlink="http://www.w3.org/1999/xlink" x="0px" y="0px"
	 width="24px" height="24px" viewBox="0 0 24 24" enable-background="new 0 0 24 24" xml:space="preserve">
<circle fill="#FFFFFF" stroke="#FFFFFF" stroke-miterlimit="10" cx="12.001" cy="10.25" r="9"/>
<g id="Capa_1_1_" display="none">
	<circle display="inline" fill="#9A7D22" cx="12" cy="10.4" r="10"/>
</g>
<g id="Capa_3">
	<path fill="#F39F7E" d="M11.998,0.001L11.998,0.001C6.338-0.084,1.682,4.435,1.597,10.094c0,0.044,0,0.089,0,0.133
		c0,3.126,1.311,5.527,3.563,7.753c2.972,2.929,5.813,5.599,5.813,5.599c0.311,0.3,0.737,0.45,1.167,0.412v-0.412l0,0V24
		c0.368-0.079,0.715-0.232,1.021-0.455c0,0,2.741-2.74,5.696-5.652c2.254-2.221,3.547-4.533,3.547-7.677
		C22.377,4.547,17.76-0.027,12.091,0C12.06,0,12.029,0,11.998,0.001z M11.998,19c-4.946,0.003-8.957-4.004-8.959-8.949
		c-0.003-4.945,4.003-8.956,8.948-8.959c4.945-0.002,8.957,4.003,8.958,8.949c0,0.003,0,0.007,0,0.011
		C20.941,14.995,16.936,19,11.992,19H11.998z"/>
</g>
<title>semaforo</title>
<title>camara - vigilancia</title>
<g>
	<path fill="#F39F7E" d="M13.429,10.938l2.874,0.863c0.029,0.004,0.059,0.004,0.088,0c0.051,0,0.1-0.014,0.144-0.037
		c0.071-0.037,0.124-0.102,0.147-0.178l0.216-0.731l0.539,0.16c0.028,0.005,0.058,0.005,0.087,0c0.08-0.002,0.156-0.033,0.214-0.091
		l2.172-2.175c0.081-0.079,0.111-0.196,0.077-0.304c-0.026-0.102-0.103-0.184-0.204-0.214l-1.932-0.582l0.218-0.728
		c0.049-0.159-0.039-0.328-0.197-0.376c-0.001-0.001-0.003-0.001-0.004-0.001L8.576,3.752c-0.159-0.048-0.326,0.042-0.374,0.2
		l-1.41,4.679c-0.048,0.159,0.041,0.328,0.2,0.377L9.87,9.872 M11.49,10.279 M10.802,10.063l-1.874,2.282
		c-0.304-0.197-0.658-0.303-1.02-0.304H6.601C6.269,12.041,6,12.311,6,12.643v2.594c0,0.332,0.27,0.602,0.602,0.602h1.307
		c1.048-0.002,1.897-0.851,1.898-1.899c0-0.411-0.135-0.812-0.384-1.139l2.029-2.473c-0.233-0.114-0.233-0.114,0,0 M7.908,15.236
		H7.46v-0.002c-0.133,0-0.265,0-0.397,0v0.002H6.601v-2.594h1.307c0.716,0,1.297,0.581,1.297,1.296
		C9.205,14.655,8.624,15.236,7.908,15.236z M16.722,9.303l-0.125,0.395l-0.427,1.455L7.447,8.531L7.64,7.89l0.118-0.384l0.926-3.102
		l8.723,2.62L16.722,9.303z M17.413,10.42l-0.335-0.104l0.626-2.076l1.438,0.431L17.413,10.42z"/>
</g>
</svg>
