<?xml version="1.0" encoding="utf-8"?>
<!-- Generator: Adobe Illustrator 16.0.0, SVG Export Plug-In . SVG Version: 6.00 Build 0)  -->
<!DOCTYPE svg PUBLIC "-//W3C//DTD SVG 1.1//EN" "http://www.w3.org/Graphics/SVG/1.1/DTD/svg11.dtd">
<svg version="1.1" id="Capa_1" xmlns="http://www.w3.org/2000/svg" xmlns:xlink="http://www.w3.org/1999/xlink" x="0px" y="0px"
	 width="24px" height="24px" viewBox="0 0 24 24" enable-background="new 0 0 24 24" xml:space="preserve">
<circle fill="#FFFFFF" stroke="#FFFFFF" stroke-miterlimit="10" cx="12.001" cy="10.25" r="9"/>
<g id="Capa_1_1_" display="none">
	<circle display="inline" fill="#9A7D22" cx="12" cy="10.4" r="10"/>
</g>
<g id="Capa_3">
	<path fill="#F39F7E" d="M11.997,0.001L11.997,0.001c-5.66-0.085-10.315,4.434-10.4,10.093c0,0.044,0,0.089,0,0.133
		c0,3.126,1.311,5.527,3.563,7.753c2.972,2.929,5.813,5.599,5.813,5.599c0.311,0.3,0.736,0.45,1.167,0.412v-0.412l0,0V24
		c0.367-0.079,0.715-0.232,1.021-0.455c0,0,2.741-2.74,5.696-5.652c2.254-2.221,3.547-4.533,3.547-7.677
		C22.376,4.547,17.759-0.027,12.09,0C12.06,0,12.028,0,11.997,0.001z M11.997,19c-4.946,0.003-8.957-4.004-8.959-8.949
		c-0.003-4.945,4.003-8.956,8.948-8.959c4.944-0.002,8.956,4.003,8.958,8.949c0,0.003,0,0.007,0,0.011
		C20.939,14.995,16.936,19,11.991,19H11.997z"/>
</g>
<g>
	<path fill="#F39F7E" d="M13.462,5.493h-3.088c-0.38,0.001-0.688,0.31-0.689,0.689v1.58h4.467v-1.58
		C14.15,5.803,13.842,5.495,13.462,5.493z M13.678,7.294h-3.515V6.183c0-0.119,0.097-0.216,0.216-0.216l0,0h3.088
		c0.119,0,0.216,0.097,0.216,0.216l0,0L13.678,7.294z"/>
	<path fill="#F39F7E" d="M17,6.759V6.502c0-0.301-0.257-0.515-0.661-0.862L16.04,5.382c-0.099-0.086-0.249-0.077-0.336,0.022
		c-0.086,0.099-0.076,0.249,0.021,0.336l0.307,0.257c0.209,0.178,0.494,0.419,0.494,0.499v0.065
		c-0.313,0.138-0.787,0.497-0.787,0.771v1.164c0,0.257,0.463,0.632,0.787,0.787v4.483c0,0.111-0.09,0.201-0.202,0.201
		c-0.111,0-0.201-0.09-0.201-0.201v-3.763c0.023-0.213-0.037-0.428-0.17-0.597c-0.133-0.143-0.321-0.219-0.516-0.208h-0.213v-3.31
		c-0.002-0.787-0.639-1.424-1.426-1.425h-3.762C9.25,4.465,8.612,5.103,8.611,5.889v8.853H7.939C7.421,14.743,7.001,15.163,7,15.681
		v0.302h9.83v-0.302c-0.001-0.518-0.421-0.938-0.938-0.938h-0.662V9.669h0.214c0.108,0,0.142,0.037,0.152,0.049
		c0.046,0.078,0.064,0.169,0.051,0.258v3.791c0,0.374,0.304,0.677,0.677,0.677S17,14.141,17,13.767v-4.66c0,0,0,0,0-0.018V6.759z
		 M9.084,5.889c0-0.525,0.426-0.952,0.952-0.952l0,0h3.764c0.525,0.002,0.948,0.426,0.95,0.95v8.853H9.089L9.084,5.889z
		 M15.901,15.215c0.189,0,0.361,0.115,0.432,0.291H7.507c0.072-0.176,0.243-0.291,0.433-0.291H15.901z M16.526,8.723
		c-0.117-0.078-0.222-0.17-0.312-0.278V7.359c0.093-0.099,0.197-0.186,0.312-0.257V8.723z"/>
</g>
</svg>
