<?xml version="1.0" encoding="utf-8"?>
<!-- Generator: Adobe Illustrator 16.0.0, SVG Export Plug-In . SVG Version: 6.00 Build 0)  -->
<!DOCTYPE svg PUBLIC "-//W3C//DTD SVG 1.1//EN" "http://www.w3.org/Graphics/SVG/1.1/DTD/svg11.dtd">
<svg version="1.1" id="Capa_1" xmlns="http://www.w3.org/2000/svg" xmlns:xlink="http://www.w3.org/1999/xlink" x="0px" y="0px"
	 width="24px" height="24px" viewBox="0 0 24 24" enable-background="new 0 0 24 24" xml:space="preserve">
<circle fill="#FFFFFF" stroke="#FFFFFF" stroke-miterlimit="10" cx="12.001" cy="10.25" r="9"/>
<g id="Capa_1_1_" display="none">
	<circle display="inline" fill="#9A7D22" cx="12" cy="10.4" r="10"/>
</g>
<g id="Capa_3">
	<path fill="#B5343A" d="M11.997,0.001L11.997,0.001c-5.66-0.085-10.315,4.434-10.4,10.093c0,0.044,0,0.089,0,0.133
		c0,3.126,1.311,5.527,3.563,7.753c2.972,2.929,5.813,5.599,5.813,5.599c0.311,0.3,0.736,0.45,1.167,0.412v-0.412l0,0V24
		c0.367-0.079,0.715-0.232,1.021-0.455c0,0,2.741-2.74,5.696-5.652c2.254-2.221,3.547-4.533,3.547-7.677
		C22.376,4.547,17.759-0.027,12.09,0C12.06,0,12.028,0,11.997,0.001z M11.997,19c-4.946,0.003-8.957-4.004-8.959-8.949
		c-0.003-4.945,4.003-8.956,8.948-8.959c4.944-0.002,8.956,4.003,8.958,8.949c0,0.003,0,0.007,0,0.011
		C20.939,14.995,16.936,19,11.991,19H11.997z"/>
</g>
<circle fill="#B5343A" cx="12" cy="4.254" r="1.446"/>
<path fill="#B5343A" d="M15.35,16.14l-1.651-2.256l-0.488-2.751l-0.132-2.892l0.806,0.815l0.166,1.3
	c0.091,0.321,0.426,0.51,0.747,0.419c0.294-0.083,0.481-0.371,0.436-0.673l-0.205-1.466c-0.025-0.115-0.083-0.22-0.166-0.303
	l-1.124-1.153l-0.889-0.928l0,0c-0.081-0.087-0.187-0.148-0.303-0.176c-0.221-0.041-0.445,0.035-0.597,0.2l-1.651,1.954L8.901,8.72
	C8.586,8.833,8.422,9.18,8.536,9.494c0.105,0.294,0.415,0.459,0.717,0.384l1.573-0.548c0.113-0.034,0.212-0.101,0.288-0.189
	l0.757-0.915l0.103,2.838l-1.587,2.179c-0.153,0.183-0.252,0.404-0.289,0.641L9.863,16.79c0.004,0.286,0.208,0.531,0.489,0.586
	h0.127c0.333-0.003,0.601-0.272,0.601-0.605l0.235-2.638l0.947-1.324c0.069,0.571,0.194,1.134,0.372,1.68l1.836,2.478
	c0.239,0.233,0.623,0.229,0.856-0.009c0.219-0.223,0.232-0.573,0.033-0.812L15.35,16.14z"/>
<path fill="#B5343A" stroke="#FFFFFF" stroke-width="0.25" stroke-miterlimit="10" d="M13.778,6.109
	c-0.575-0.332-1.302-0.24-1.775,0.226c-0.336-0.33-0.811-0.478-1.275-0.395c-0.529,0.08-0.97,0.446-1.148,0.951
	c-0.176,0.517-0.056,1.088,0.313,1.49c0.313,0.354,1.486,1.712,1.766,2.036c0.083,0.116,0.21,0.192,0.353,0.208
	c0.055-0.001,0.108-0.015,0.156-0.041c0.08-0.04,0.313-0.297,1.589-1.788l0.322-0.376c0.193-0.197,0.329-0.444,0.392-0.714
	c0.001-0.012,0.001-0.022,0-0.034C14.593,7.058,14.315,6.433,13.778,6.109z"/>
</svg>
