<?xml version="1.0" encoding="utf-8"?>
<!-- Generator: Adobe Illustrator 16.0.0, SVG Export Plug-In . SVG Version: 6.00 Build 0)  -->
<!DOCTYPE svg PUBLIC "-//W3C//DTD SVG 1.1//EN" "http://www.w3.org/Graphics/SVG/1.1/DTD/svg11.dtd">
<svg version="1.1" id="Capa_1" xmlns="http://www.w3.org/2000/svg" xmlns:xlink="http://www.w3.org/1999/xlink" x="0px" y="0px"
	 width="24px" height="24px" viewBox="0 0 24 24" enable-background="new 0 0 24 24" xml:space="preserve">
<circle fill="#FFFFFF" stroke="#FFFFFF" stroke-miterlimit="10" cx="12.001" cy="10.25" r="9"/>
<g id="Capa_1_1_" display="none">
	<circle display="inline" fill="#9A7D22" cx="12" cy="10.4" r="10"/>
</g>
<g id="Capa_3">
	<path fill="#74953E" d="M11.998,0.001L11.998,0.001C6.338-0.084,1.682,4.435,1.597,10.094c0,0.044,0,0.089,0,0.133
		c0,3.126,1.311,5.527,3.563,7.753c2.972,2.929,5.813,5.599,5.813,5.599c0.311,0.3,0.737,0.45,1.167,0.412v-0.412l0,0V24
		c0.368-0.079,0.715-0.232,1.021-0.455c0,0,2.741-2.74,5.696-5.652c2.254-2.221,3.547-4.533,3.547-7.677
		C22.377,4.547,17.76-0.027,12.091,0C12.06,0,12.029,0,11.998,0.001z M11.998,19c-4.946,0.003-8.957-4.004-8.959-8.949
		c-0.003-4.945,4.003-8.956,8.948-8.959c4.945-0.002,8.957,4.003,8.958,8.949c0,0.003,0,0.007,0,0.011
		C20.941,14.995,16.936,19,11.992,19H11.998z"/>
</g>
<g>
	<path fill="#74953E" d="M16.191,14.803v-2.42c-0.131-0.017-0.264-0.036-0.396-0.062c-0.125-0.022-0.251-0.05-0.377-0.08v0.16H8.5
		v-0.149c-0.159,0.363-0.424,0.654-0.732,0.912v1.639C7.523,14.966,7.36,15.25,7.36,15.535v0.57C7.36,16.594,7.768,17,8.256,17
		h7.447c0.488,0,0.896-0.406,0.896-0.895v-0.57C16.599,15.209,16.437,14.966,16.191,14.803z M8.541,13.134h6.918v1.465H8.541V13.134
		z M15.825,16.105c0,0.08-0.04,0.121-0.122,0.121H8.256c-0.081,0-0.122-0.041-0.122-0.121v-0.57c0-0.082,0.082-0.122,0.122-0.122
		h7.447c0.082,0,0.122,0.04,0.122,0.122V16.105z"/>
	<path fill="#74953E" d="M8.5,12.252V7.599h2.736c0.039-0.246,0.081-0.491,0.124-0.732H8.541V6.826v-1.24
		C8.284,5.501,8.022,5.414,7.768,5.318v7.846C8.076,12.906,8.341,12.615,8.5,12.252z"/>
	<path fill="#74953E" d="M15.459,12.259l0.03-4.653l-2.737-0.017c-0.037-0.246-0.078-0.492-0.119-0.734l2.82,0.019V6.833l0.008-1.24
		c0.258-0.083,0.519-0.169,0.774-0.264l-0.049,7.848C15.88,12.916,15.616,12.622,15.459,12.259z"/>
	<path fill="#74953E" d="M16.232,5.59V5.198c0.245-0.163,0.407-0.448,0.407-0.732v-0.57C16.64,3.408,16.232,3,15.744,3H8.256
		C7.768,3,7.36,3.408,7.36,3.896v0.57c0,0.326,0.163,0.57,0.407,0.732v0.121c0.255,0.096,0.517,0.183,0.773,0.268V5.361h6.918v0.224
		C15.6,5.583,16.115,5.586,16.232,5.59z M8.256,4.587c-0.081,0-0.122-0.041-0.122-0.122v-0.57c0-0.081,0.082-0.122,0.122-0.122
		h7.447c0.082,0,0.122,0.041,0.122,0.122v0.57c0,0.082-0.04,0.122-0.122,0.122H8.256z"/>
	<rect x="8.124" y="6.708" fill="#74953E" width="7.593" height="5.935"/>
</g>
</svg>
