<?xml version="1.0" encoding="utf-8"?>
<!-- Generator: Adobe Illustrator 16.0.0, SVG Export Plug-In . SVG Version: 6.00 Build 0)  -->
<!DOCTYPE svg PUBLIC "-//W3C//DTD SVG 1.1//EN" "http://www.w3.org/Graphics/SVG/1.1/DTD/svg11.dtd">
<svg version="1.1" id="Capa_1" xmlns="http://www.w3.org/2000/svg" xmlns:xlink="http://www.w3.org/1999/xlink" x="0px" y="0px"
	 width="24px" height="24px" viewBox="0 0 24 24" enable-background="new 0 0 24 24" xml:space="preserve">
<circle fill="#FFFFFF" stroke="#FFFFFF" stroke-miterlimit="10" cx="12.001" cy="10.25" r="9"/>
<g id="Capa_1_1_" display="none">
	<circle display="inline" fill="#9A7D22" cx="12" cy="10.4" r="10"/>
</g>
<g id="Capa_3">
	<path fill="#B5343A" d="M11.997,0.001L11.997,0.001c-5.66-0.085-10.315,4.434-10.4,10.093c0,0.044,0,0.089,0,0.133
		c0,3.126,1.311,5.527,3.563,7.753c2.972,2.929,5.813,5.599,5.813,5.599c0.311,0.3,0.736,0.45,1.167,0.412v-0.412l0,0V24
		c0.367-0.079,0.715-0.232,1.021-0.455c0,0,2.741-2.74,5.696-5.652c2.254-2.221,3.547-4.533,3.547-7.677
		C22.376,4.547,17.759-0.027,12.09,0C12.06,0,12.028,0,11.997,0.001z M11.997,19c-4.946,0.003-8.957-4.004-8.959-8.949
		c-0.003-4.945,4.003-8.956,8.948-8.959c4.944-0.002,8.956,4.003,8.958,8.949c0,0.003,0,0.007,0,0.011
		C20.939,14.995,16.936,19,11.991,19H11.997z"/>
</g>
<line fill="none" stroke="#B5343A" stroke-width="0.25" stroke-linecap="round" stroke-linejoin="round" stroke-miterlimit="10" x1="11.999" y1="3.24" x2="11.999" y2="6.971"/>
<path fill="#B5343A" d="M12.324,3.219c0,0,1.043,0.615,2.23-0.368c0,0,0.902,0.026,0.98,0.279c0.081,0.253,0,1.973,0,1.973
	s-0.721-0.573-1.59,0c0,0-0.746,0.531-1.625,0"/>
<rect x="7.449" y="7.32" fill="#B5343A" stroke="#B5343A" stroke-width="0.25" stroke-linecap="round" stroke-linejoin="round" stroke-miterlimit="10" width="9.101" height="6.76"/>
<line fill="none" stroke="#B5343A" stroke-width="0.5" stroke-linecap="round" stroke-linejoin="round" stroke-miterlimit="10" x1="5.5" y1="14.738" x2="18.5" y2="14.738"/>
<path fill="#FFFFFF" d="M12.033,10.933c-0.469,0-0.849,0.148-0.849,0.332v2.918h1.698v-2.918
	C12.882,11.081,12.501,10.933,12.033,10.933z"/>
<path fill="#B5343A" d="M16.56,12.831h-0.02c-0.104-0.042-0.225-0.028-0.317,0.036c-0.362,0.247-0.787,0.385-1.226,0.396
	c-0.444-0.015-0.875-0.152-1.246-0.396c-0.098-0.056-0.216-0.056-0.313,0c-1.821,0.9-2.579,3.325-2.416,3.797
	c0.021,0.058,0.058,0.108,0.107,0.146c1.147,0.768,2.488,1.198,3.868,1.241c1.388-0.017,2.738-0.453,3.877-1.249
	c0.048-0.04,0.086-0.091,0.106-0.15C19.135,16.148,18.382,13.725,16.56,12.831z M15.592,14.612l-0.583,0.707c0,0,0,0.02,0,0.027
	s0,0,0-0.027l-0.579-0.707l0.591-0.722L15.592,14.612z M15.005,17.426c-0.36-0.007-0.719-0.046-1.071-0.119l1.071-1.754l1.079,1.766
	c-0.358,0.066-0.723,0.1-1.087,0.1L15.005,17.426z"/>
<path fill="#B5343A" d="M14.755,12.791c1.523,0,2.749-1.844,2.749-3.368c0.059-1.52-1.127-2.798-2.646-2.856
	s-2.798,1.127-2.855,2.647c-0.003,0.07-0.003,0.139,0,0.209C12.002,10.947,13.228,12.791,14.755,12.791z M12.942,10.078
	c0.438-0.009,0.869-0.125,1.254-0.337c0.644-0.345,1.157-0.891,1.463-1.555c0.158,0.694,0.5,1.587,1.19,1.785
	c-0.234,1.095-1.118,2.234-2.099,2.234c-0.979,0-1.816-1.079-2.079-2.15C12.762,10.068,12.852,10.076,12.942,10.078L12.942,10.078z"
	/>
<path fill="#B5343A" stroke="#FFFFFF" stroke-width="0.25" stroke-miterlimit="10" d="M14.755,12.791
	c1.523,0,2.749-1.844,2.749-3.368c0.059-1.52-1.127-2.798-2.646-2.856s-2.798,1.127-2.855,2.647c-0.003,0.07-0.003,0.139,0,0.209
	C12.002,10.947,13.228,12.791,14.755,12.791z M16.917,9.423c0,0.043,0,0.087,0,0.131c-0.611-0.222-0.854-1.353-0.936-1.917
	C16.568,8.042,16.918,8.71,16.917,9.423z M12.589,9.423c0.013-1.188,0.979-2.144,2.166-2.146c0.256,0.001,0.508,0.048,0.746,0.139
	c-0.194,0.844-0.738,1.564-1.495,1.983c-0.425,0.249-0.926,0.333-1.409,0.238C12.593,9.55,12.589,9.487,12.589,9.423z
	 M12.942,10.078c0.438-0.009,0.869-0.125,1.254-0.337c0.644-0.345,1.157-0.891,1.463-1.555c0.158,0.694,0.5,1.587,1.19,1.785
	c-0.234,1.095-1.118,2.234-2.099,2.234c-0.979,0-1.816-1.079-2.079-2.15C12.762,10.068,12.852,10.076,12.942,10.078L12.942,10.078z"
	/>
<path fill="#B5343A" stroke="#FFFFFF" stroke-width="0.25" stroke-miterlimit="10" d="M16.56,12.831h-0.02
	c-0.104-0.042-0.225-0.028-0.317,0.036c-0.362,0.247-0.787,0.385-1.226,0.396c-0.444-0.015-0.875-0.152-1.246-0.396
	c-0.098-0.056-0.216-0.056-0.313,0c-1.821,0.9-2.579,3.325-2.416,3.797c0.021,0.058,0.058,0.108,0.107,0.146
	c1.147,0.768,2.488,1.198,3.868,1.241c1.388-0.017,2.738-0.453,3.877-1.249c0.048-0.04,0.086-0.091,0.106-0.15
	C19.135,16.148,18.382,13.725,16.56,12.831z M16.425,13.423c0.17,0.097,0.331,0.209,0.48,0.337l-0.73,0.908l-0.718-0.889
	c0.341-0.066,0.669-0.189,0.968-0.364V13.423z M15.592,14.612l-0.583,0.707c0,0,0,0.02,0,0.027s0,0,0-0.027l-0.579-0.707
	l0.591-0.722L15.592,14.612z M13.572,13.423c0.302,0.175,0.63,0.297,0.973,0.36l-0.726,0.885l-0.742-0.916
	c0.154-0.126,0.32-0.239,0.495-0.337V13.423z M11.589,16.374c0.178-0.88,0.596-1.693,1.206-2.353l0.861,1.079
	c0.043,0.046,0.101,0.072,0.163,0.076c0.061-0.001,0.119-0.029,0.158-0.076l0.162-0.198l0.437,0.528l-1.071,1.766
	c-0.684-0.164-1.335-0.445-1.924-0.83L11.589,16.374z M15.005,17.426c-0.36-0.007-0.719-0.046-1.071-0.119l1.071-1.754l1.079,1.766
	c-0.358,0.066-0.723,0.1-1.087,0.1L15.005,17.426z M16.509,17.224l-1.092-1.777l0.437-0.528l0.167,0.198
	c0.038,0.05,0.098,0.077,0.158,0.076l0,0c0.062-0.001,0.12-0.029,0.159-0.076l0.865-1.095c0.607,0.654,1.026,1.461,1.214,2.333
	c-0.583,0.399-1.231,0.69-1.916,0.861L16.509,17.224z"/>
</svg>
