<?xml version="1.0" encoding="utf-8"?>
<!-- Generator: Adobe Illustrator 16.0.0, SVG Export Plug-In . SVG Version: 6.00 Build 0)  -->
<!DOCTYPE svg PUBLIC "-//W3C//DTD SVG 1.1//EN" "http://www.w3.org/Graphics/SVG/1.1/DTD/svg11.dtd">
<svg version="1.1" id="Capa_1" xmlns="http://www.w3.org/2000/svg" xmlns:xlink="http://www.w3.org/1999/xlink" x="0px" y="0px"
	 width="24px" height="24px" viewBox="0 0 24 24" enable-background="new 0 0 24 24" xml:space="preserve">
<circle fill="#FFFFFF" stroke="#FFFFFF" stroke-miterlimit="10" cx="12.001" cy="10.25" r="9"/>
<g id="Capa_1_1_" display="none">
	<circle display="inline" fill="#9A7D22" cx="12" cy="10.4" r="10"/>
</g>
<g id="Capa_3">
	<path fill="#B5343A" d="M11.997,0.001L11.997,0.001c-5.66-0.085-10.315,4.434-10.4,10.093c0,0.044,0,0.089,0,0.133
		c0,3.126,1.311,5.527,3.563,7.753c2.972,2.929,5.813,5.599,5.813,5.599c0.311,0.3,0.736,0.45,1.167,0.412v-0.412l0,0V24
		c0.367-0.079,0.715-0.232,1.021-0.455c0,0,2.741-2.74,5.696-5.652c2.254-2.221,3.547-4.533,3.547-7.677
		C22.376,4.547,17.759-0.027,12.09,0C12.06,0,12.028,0,11.997,0.001z M11.997,19c-4.946,0.003-8.957-4.004-8.959-8.949
		c-0.003-4.945,4.003-8.956,8.948-8.959c4.944-0.002,8.956,4.003,8.958,8.949c0,0.003,0,0.007,0,0.011
		C20.939,14.995,16.936,19,11.991,19H11.997z"/>
</g>
<line fill="none" stroke="#B5343A" stroke-width="0.25" stroke-linecap="round" stroke-linejoin="round" stroke-miterlimit="10" x1="11.999" y1="3.24" x2="11.999" y2="6.971"/>
<path fill="#B5343A" d="M12.324,3.219c0,0,1.043,0.615,2.23-0.368c0,0,0.902,0.026,0.98,0.279c0.081,0.253,0,1.973,0,1.973
	s-0.721-0.573-1.59,0c0,0-0.746,0.531-1.625,0"/>
<rect x="7.449" y="7.32" fill="#B5343A" stroke="#B5343A" stroke-width="0.25" stroke-linecap="round" stroke-linejoin="round" stroke-miterlimit="10" width="9.101" height="6.76"/>
<line fill="none" stroke="#B5343A" stroke-width="0.5" stroke-linecap="round" stroke-linejoin="round" stroke-miterlimit="10" x1="5.5" y1="14.738" x2="18.5" y2="14.738"/>
<path fill="#B5343A" d="M18.501,10.373H11.5c-0.276,0-0.5,0.224-0.5,0.5v4.985c0,0.275,0.224,0.499,0.5,0.499l0,0h2.118h2.768h2.116
	c0.276,0,0.499-0.224,0.499-0.499l0,0v-4.985C19,10.596,18.777,10.373,18.501,10.373L18.501,10.373z"/>
<path fill="#B5343A" stroke="#FFFFFF" stroke-width="0.25" stroke-miterlimit="10" d="M12.498,11.878h5.005
	c0.096,0,0.173-0.077,0.173-0.173s-0.077-0.174-0.173-0.174h-5.005c-0.096,0-0.174,0.078-0.174,0.174S12.402,11.878,12.498,11.878
	L12.498,11.878z"/>
<path fill="#B5343A" stroke="#FFFFFF" stroke-width="0.25" stroke-miterlimit="10" d="M18.501,10.373H11.5
	c-0.276,0-0.5,0.224-0.5,0.5v4.985c0,0.275,0.224,0.499,0.5,0.499l0,0h2.118v-0.35H11.5c-0.083,0-0.151-0.067-0.152-0.149v-4.985
	c0-0.083,0.068-0.15,0.152-0.15h7.001c0.084,0,0.151,0.067,0.152,0.15v4.985c-0.001,0.082-0.068,0.149-0.152,0.149h-2.116v0.35
	h2.116c0.276,0,0.499-0.224,0.499-0.499l0,0v-4.985C19,10.596,18.777,10.373,18.501,10.373L18.501,10.373z"/>
<path fill="#B5343A" stroke="#FFFFFF" stroke-width="0.15" stroke-miterlimit="10" d="M16.416,14.886
	c0.147-0.06,0.219-0.226,0.16-0.372c-0.029-0.073-0.087-0.131-0.16-0.16c-0.12-0.072-0.168-0.223-0.113-0.351
	c0.089-0.132,0.055-0.311-0.076-0.398c-0.07-0.047-0.156-0.062-0.237-0.039c-0.14,0.012-0.267-0.08-0.299-0.217
	c-0.007-0.155-0.139-0.276-0.295-0.27c-0.077,0.004-0.149,0.038-0.2,0.097c-0.07,0.059-0.164,0.083-0.256,0.065
	c-0.046-0.007-0.089-0.027-0.124-0.058c-0.1-0.122-0.279-0.141-0.401-0.041c-0.063,0.051-0.1,0.126-0.104,0.206
	c-0.033,0.136-0.16,0.228-0.299,0.217c-0.153-0.039-0.31,0.053-0.35,0.206c-0.02,0.076-0.007,0.158,0.035,0.226
	c0.056,0.126,0.01,0.274-0.107,0.349c-0.146,0.059-0.218,0.226-0.159,0.372c0.029,0.073,0.087,0.131,0.159,0.16
	c0.121,0.072,0.17,0.222,0.113,0.351c-0.055,0.101-0.051,0.223,0.01,0.318c0.051,0.065,0.127,0.107,0.209,0.113v1.65
	c-0.001,0.114,0.063,0.221,0.164,0.274c0.102,0.055,0.226,0.049,0.321-0.016l0.585-0.402c0.006-0.004,0.014-0.004,0.02,0
	l0.586,0.404c0.051,0.036,0.113,0.057,0.177,0.056c0.05,0,0.1-0.012,0.145-0.034c0.104-0.054,0.168-0.161,0.168-0.277v-1.651
	c0.08-0.006,0.155-0.045,0.204-0.109l0,0c0.057-0.098,0.057-0.217,0-0.314C16.235,15.107,16.289,14.954,16.416,14.886z
	 M15.788,17.315c0,0.007-0.004,0.013-0.01,0.016c-0.005,0.003-0.012,0.003-0.018,0l-0.585-0.403c-0.106-0.072-0.246-0.072-0.353,0
	l-0.585,0.399c-0.006,0.004-0.013,0.004-0.018,0c-0.003-0.005-0.003-0.011,0-0.016v-1.583c0.05,0.038,0.085,0.093,0.1,0.153
	c0.008,0.156,0.141,0.276,0.297,0.269c0.076-0.004,0.147-0.039,0.198-0.097c0.052-0.051,0.122-0.079,0.194-0.078
	c0.072-0.003,0.143,0.022,0.195,0.07l0,0c0.077,0.078,0.19,0.109,0.297,0.082c0.106-0.042,0.182-0.14,0.194-0.254
	c0.015-0.063,0.05-0.118,0.102-0.155L15.788,17.315z M15.008,15.543c-0.512,0.002-0.928-0.411-0.93-0.923s0.41-0.928,0.922-0.93
	s0.929,0.411,0.931,0.922c0,0.003,0,0.004,0,0.007c0,0.51-0.414,0.924-0.925,0.924c-0.002,0-0.004,0-0.006,0H15.008z"/>
<polygon fill="#B5343A" stroke="#FFFFFF" stroke-width="0.25" stroke-miterlimit="10" points="15.172,14.437 15,14.09 
	14.829,14.437 14.444,14.494 14.724,14.763 14.657,15.146 15,14.966 15.344,15.146 15.277,14.763 15.557,14.494 "/>
</svg>
