<?xml version="1.0" encoding="utf-8"?>
<!-- Generator: Adobe Illustrator 16.0.0, SVG Export Plug-In . SVG Version: 6.00 Build 0)  -->
<!DOCTYPE svg PUBLIC "-//W3C//DTD SVG 1.1//EN" "http://www.w3.org/Graphics/SVG/1.1/DTD/svg11.dtd">
<svg version="1.1" id="Capa_1" xmlns="http://www.w3.org/2000/svg" xmlns:xlink="http://www.w3.org/1999/xlink" x="0px" y="0px"
	 width="24px" height="24px" viewBox="0 0 24 24" enable-background="new 0 0 24 24" xml:space="preserve">
<circle fill="#FFFFFF" stroke="#FFFFFF" stroke-miterlimit="10" cx="12.001" cy="10.25" r="9"/>
<g id="Capa_1_1_" display="none">
	<circle display="inline" fill="#9A7D22" cx="12" cy="10.4" r="10"/>
</g>
<g id="Capa_3">
	<path fill="#B5343A" d="M11.997,0.001L11.997,0.001c-5.66-0.085-10.315,4.434-10.4,10.093c0,0.044,0,0.089,0,0.133
		c0,3.126,1.311,5.527,3.563,7.753c2.972,2.929,5.813,5.599,5.813,5.599c0.311,0.3,0.736,0.45,1.167,0.412v-0.412l0,0V24
		c0.367-0.079,0.715-0.232,1.021-0.455c0,0,2.741-2.74,5.696-5.652c2.254-2.221,3.547-4.533,3.547-7.677
		C22.376,4.547,17.759-0.027,12.09,0C12.06,0,12.028,0,11.997,0.001z M11.997,19c-4.946,0.003-8.957-4.004-8.959-8.949
		c-0.003-4.945,4.003-8.956,8.948-8.959c4.944-0.002,8.956,4.003,8.958,8.949c0,0.003,0,0.007,0,0.011
		C20.939,14.995,16.936,19,11.991,19H11.997z"/>
</g>
<polygon fill="#FFFFFF" stroke="#B5343A" stroke-width="0.25" stroke-linecap="round" stroke-linejoin="round" stroke-miterlimit="10" points="
	8,9.487 12,6.286 16,9.487 "/>
<rect x="8" y="9.487" fill="#FFFFFF" stroke="#B5343A" stroke-width="0.25" stroke-linecap="round" stroke-linejoin="round" stroke-miterlimit="10" width="8" height="5.201"/>
<line fill="none" stroke="#B5343A" stroke-width="0.5" stroke-linecap="round" stroke-linejoin="round" stroke-miterlimit="10" x1="7" y1="14.688" x2="17" y2="14.688"/>
<g>
	<path fill-rule="evenodd" clip-rule="evenodd" fill="#B5343A" d="M17,10.017c0,0.094,0,0.188,0,0.281
		c-0.011,0.031-0.028,0.063-0.031,0.094c-0.056,0.626-0.324,1.162-0.697,1.654c-0.526,0.695-1.188,1.247-1.893,1.748
		c-0.799,0.568-1.607,1.12-2.414,1.681c-0.173-0.135-0.368-0.296-0.573-0.444c-0.855-0.618-1.73-1.21-2.564-1.854
		c-0.682-0.525-1.263-1.159-1.593-1.975C7.124,10.927,7.077,10.626,7,10.338c0-0.134,0-0.268,0-0.401
		c0.014-0.044,0.028-0.088,0.043-0.132C7.149,9.485,7.21,9.141,7.37,8.852c0.857-1.552,2.757-1.884,4.067-0.721
		c0.201,0.178,0.356,0.406,0.539,0.617c0.293-0.512,0.719-0.891,1.269-1.104c0.288-0.112,0.602-0.16,0.903-0.237
		c0.107,0,0.215,0,0.321,0c0.038,0.012,0.075,0.031,0.112,0.035c1.109,0.098,2.066,1.035,2.326,2.086
		C16.948,9.688,16.971,9.854,17,10.017z M8.48,9.543c0.738,0.289,0.912,1.074,1.407,1.509c-0.176,0.174-0.34,0.336-0.528,0.521
		c0.656,0.341,1.25,0.67,1.863,0.962c0.519,0.247,1.053,0.346,1.612,0.062c0.51-0.259,1.01-0.57,1.645-0.489
		c-0.202-0.36-0.483-0.577-0.851-0.731c0.505-0.225,0.815-0.603,1.076-1.031c0.276-0.453,0.513-0.938,1.021-1.255
		c-0.463-0.151-0.887-0.213-1.329-0.101c-0.687,0.174-1.159,0.636-1.593,1.154c-0.188,0.226-0.376,0.452-0.574,0.669
		c-0.116,0.127-0.239,0.149-0.399,0.029c-0.438-0.328-0.88-0.653-1.341-0.947C10.2,9.71,9.884,9.555,9.562,9.437
		C9.2,9.303,8.832,9.342,8.48,9.543z"/>
	<path fill-rule="evenodd" clip-rule="evenodd" fill="#FFFFFF" d="M8.48,9.543c0.351-0.201,0.72-0.24,1.082-0.106
		C9.884,9.555,10.2,9.71,10.489,9.895c0.461,0.294,0.903,0.619,1.341,0.947c0.161,0.12,0.284,0.098,0.399-0.029
		c0.198-0.217,0.385-0.443,0.574-0.669c0.434-0.519,0.906-0.98,1.593-1.154c0.442-0.112,0.866-0.051,1.329,0.101
		c-0.508,0.317-0.744,0.802-1.021,1.255c-0.261,0.429-0.571,0.807-1.076,1.031c0.367,0.154,0.648,0.371,0.851,0.731
		c-0.635-0.081-1.135,0.23-1.645,0.489c-0.559,0.284-1.093,0.186-1.612-0.062c-0.612-0.292-1.207-0.621-1.863-0.962
		c0.188-0.186,0.352-0.348,0.528-0.521C9.392,10.617,9.219,9.832,8.48,9.543z"/>
</g>
</svg>
