<?xml version="1.0" encoding="utf-8"?>
<!-- Generator: Adobe Illustrator 16.0.0, SVG Export Plug-In . SVG Version: 6.00 Build 0)  -->
<!DOCTYPE svg PUBLIC "-//W3C//DTD SVG 1.1//EN" "http://www.w3.org/Graphics/SVG/1.1/DTD/svg11.dtd">
<svg version="1.1" id="Capa_1" xmlns="http://www.w3.org/2000/svg" xmlns:xlink="http://www.w3.org/1999/xlink" x="0px" y="0px"
	 width="24px" height="24px" viewBox="0 0 24 24" enable-background="new 0 0 24 24" xml:space="preserve">
<circle fill="#FFFFFF" stroke="#FFFFFF" stroke-miterlimit="10" cx="12.001" cy="10.25" r="9"/>
<g id="Capa_1_1_" display="none">
	<circle display="inline" fill="#9A7D22" cx="12" cy="10.4" r="10"/>
</g>
<g id="Capa_3">
	<path fill="#B5343A" d="M11.997,0.001L11.997,0.001c-5.66-0.085-10.315,4.434-10.4,10.093c0,0.044,0,0.089,0,0.133
		c0,3.126,1.311,5.527,3.563,7.753c2.972,2.929,5.813,5.599,5.813,5.599c0.311,0.3,0.736,0.45,1.167,0.412v-0.412l0,0V24
		c0.367-0.079,0.715-0.232,1.021-0.455c0,0,2.741-2.74,5.696-5.652c2.254-2.221,3.547-4.533,3.547-7.677
		C22.376,4.547,17.759-0.027,12.09,0C12.06,0,12.028,0,11.997,0.001z M11.997,19c-4.946,0.003-8.957-4.004-8.959-8.949
		c-0.003-4.945,4.003-8.956,8.948-8.959c4.944-0.002,8.956,4.003,8.958,8.949c0,0.003,0,0.007,0,0.011
		C20.939,14.995,16.936,19,11.991,19H11.997z"/>
</g>
<polygon fill="#B5343A" stroke="#B5343A" stroke-width="0.25" stroke-linecap="round" stroke-linejoin="round" stroke-miterlimit="10" points="
	8,9.487 12,6.286 16,9.487 "/>
<rect x="8" y="9.487" fill="#B5343A" stroke="#B5343A" stroke-width="0.25" stroke-linecap="round" stroke-linejoin="round" stroke-miterlimit="10" width="8" height="5.201"/>
<line fill="none" stroke="#B5343A" stroke-width="0.5" stroke-linecap="round" stroke-linejoin="round" stroke-miterlimit="10" x1="7" y1="14.688" x2="17" y2="14.688"/>
<line fill="none" stroke="#B5343A" stroke-width="0.5" stroke-linecap="round" stroke-linejoin="round" stroke-miterlimit="10" x1="12" y1="3.697" x2="12" y2="6.286"/>
<line fill="none" stroke="#B5343A" stroke-width="0.5" stroke-linecap="round" stroke-linejoin="round" stroke-miterlimit="10" x1="11.001" y1="4.533" x2="13.002" y2="4.533"/>
<path fill-rule="evenodd" clip-rule="evenodd" fill="#FFFFFF" d="M9.221,11.343c0.027-0.127,0.048-0.256,0.082-0.381
	c0.091-0.332,0.271-0.616,0.503-0.864c0.315-0.337,0.646-0.661,0.967-0.993c0.459-0.475,0.921-0.947,1.373-1.43
	c0.185-0.198,0.325-0.43,0.338-0.715c0.013,0,0.026,0,0.039,0c-0.004,0.128-0.021,0.257-0.01,0.384
	c0.035,0.398-0.116,0.729-0.365,1.02c-0.206,0.241-0.431,0.466-0.652,0.694c-0.578,0.599-1.165,1.189-1.734,1.796
	c-0.258,0.275-0.42,0.611-0.446,0.999c-0.001,0.014-0.008,0.028-0.031,0.042c-0.021-0.101-0.042-0.201-0.063-0.302
	C9.221,11.51,9.221,11.427,9.221,11.343z"/>
<path fill-rule="evenodd" clip-rule="evenodd" fill="#FFFFFF" d="M14.221,12.211c-0.036,0.159-0.063,0.32-0.109,0.475
	c-0.107,0.356-0.332,0.643-0.582,0.905c-0.309,0.323-0.628,0.636-0.941,0.954c-0.024,0.024-0.045,0.053-0.066,0.08
	c-0.161,0-0.321,0-0.482,0c0.095-0.236,0.248-0.435,0.419-0.616c0.317-0.337,0.646-0.663,0.966-0.998
	c0.225-0.236,0.447-0.48,0.57-0.789c0.063-0.152,0.09-0.318,0.131-0.479c0.007-0.025,0.01-0.053,0.031-0.08
	c0.021,0.1,0.043,0.199,0.064,0.298C14.221,12.044,14.221,12.128,14.221,12.211z"/>
<path fill-rule="evenodd" clip-rule="evenodd" fill="#FFFFFF" d="M12.515,8.031c-0.026,0.306,0.046,0.616-0.071,0.914
	c-0.095,0.243-0.241,0.455-0.419,0.64c-0.45,0.468-0.909,0.927-1.365,1.388c-0.284,0.288-0.584,0.562-0.817,0.896
	c-0.194,0.278-0.339,0.574-0.294,0.928c0.011,0.087,0.042,0.171,0.065,0.256c-0.008,0.005-0.016,0.01-0.023,0.015
	c-0.05-0.085-0.116-0.164-0.148-0.256c-0.132-0.365-0.115-0.728,0.043-1.083c0.185-0.415,0.482-0.746,0.797-1.063
	c0.479-0.485,0.965-0.963,1.441-1.451c0.228-0.233,0.467-0.463,0.623-0.754C12.417,8.327,12.458,8.179,12.515,8.031z"/>
<path fill-rule="evenodd" clip-rule="evenodd" fill="#FFFFFF" d="M10.219,13.689c-0.204-0.024-0.333-0.148-0.415-0.319
	c-0.137-0.283-0.124-0.576-0.03-0.87c0.104-0.325,0.323-0.571,0.557-0.808c0.533-0.539,1.069-1.075,1.597-1.619
	c0.196-0.202,0.387-0.413,0.493-0.682c0.035-0.088,0.051-0.183,0.078-0.282c0.005,0.01,0.013,0.018,0.013,0.027
	C12.508,9.358,12.516,9.58,12.499,9.8c-0.017,0.227-0.126,0.426-0.266,0.597c-0.207,0.252-0.425,0.497-0.653,0.731
	c-0.364,0.377-0.742,0.74-1.11,1.113c-0.212,0.216-0.375,0.463-0.445,0.763C9.964,13.267,9.982,13.507,10.219,13.689z"/>
<path fill-rule="evenodd" clip-rule="evenodd" fill="#FFFFFF" d="M13.83,10.519c0.112,0.075,0.16,0.189,0.195,0.308
	c0.156,0.527,0.003,0.99-0.3,1.421C13.451,12.64,13.1,12.96,12.768,13.3c-0.244,0.249-0.5,0.493-0.666,0.806
	c-0.08,0.151-0.127,0.32-0.179,0.453c0-0.045-0.001-0.126,0-0.206c0.003-0.173-0.01-0.349,0.014-0.519
	c0.04-0.277,0.19-0.512,0.372-0.715c0.301-0.337,0.625-0.655,0.933-0.985c0.282-0.3,0.547-0.612,0.639-1.031
	C13.924,10.902,13.904,10.71,13.83,10.519z"/>
<path fill-rule="evenodd" clip-rule="evenodd" fill="#FFFFFF" d="M11.933,13.521c0-0.288-0.028-0.551,0.007-0.805
	c0.046-0.331,0.254-0.59,0.476-0.83c0.196-0.212,0.407-0.411,0.602-0.624c0.211-0.229,0.367-0.489,0.417-0.806
	c0.036-0.236-0.015-0.437-0.238-0.596c0.129,0.005,0.212,0.052,0.284,0.118c0.229,0.214,0.273,0.49,0.248,0.785
	c-0.035,0.419-0.264,0.737-0.545,1.029c-0.297,0.307-0.593,0.614-0.879,0.931C12.107,12.94,11.975,13.197,11.933,13.521z"/>
</svg>
