<?xml version="1.0" encoding="utf-8"?>
<!-- Generator: Adobe Illustrator 16.0.0, SVG Export Plug-In . SVG Version: 6.00 Build 0)  -->
<!DOCTYPE svg PUBLIC "-//W3C//DTD SVG 1.1//EN" "http://www.w3.org/Graphics/SVG/1.1/DTD/svg11.dtd">
<svg version="1.1" id="Capa_1" xmlns="http://www.w3.org/2000/svg" xmlns:xlink="http://www.w3.org/1999/xlink" x="0px" y="0px"
	 width="24px" height="24px" viewBox="0 0 24 24" enable-background="new 0 0 24 24" xml:space="preserve">
<circle fill="#FFFFFF" stroke="#FFFFFF" stroke-miterlimit="10" cx="12.001" cy="10.25" r="9"/>
<g id="Capa_1_1_" display="none">
	<circle display="inline" fill="#9A7D22" cx="12" cy="10.4" r="10"/>
</g>
<g id="Capa_3">
	<path fill="#F39F7E" d="M11.998,0.001L11.998,0.001C6.338-0.084,1.682,4.435,1.597,10.094c0,0.044,0,0.089,0,0.133
		c0,3.126,1.311,5.527,3.563,7.753c2.972,2.929,5.813,5.599,5.813,5.599c0.311,0.3,0.737,0.45,1.167,0.412v-0.412l0,0V24
		c0.368-0.079,0.715-0.232,1.021-0.455c0,0,2.741-2.74,5.696-5.652c2.254-2.221,3.547-4.533,3.547-7.677
		C22.377,4.547,17.76-0.027,12.091,0C12.06,0,12.029,0,11.998,0.001z M11.998,19c-4.946,0.003-8.957-4.004-8.959-8.949
		c-0.003-4.945,4.003-8.956,8.948-8.959c4.945-0.002,8.957,4.003,8.958,8.949c0,0.003,0,0.007,0,0.011
		C20.941,14.995,16.936,19,11.992,19H11.998z"/>
</g>
<path fill="#F39F7E" d="M18.063,8.895c0-0.764-0.481-5.212-5.511-4.907C8.9,4.218,8.044,7.206,6.378,7.81
	c-3.279,1.131-1.88,4.333-1.88,4.333h0.726c0.109,0.312,0.287,0.593,0.52,0.825c0.874,0.876,2.291,0.879,3.167,0.006
	c0.002-0.002,0.004-0.003,0.005-0.006c0.246-0.237,0.431-0.531,0.543-0.854h3.638c0.108,0.311,0.286,0.592,0.52,0.824
	c0.86,0.89,2.277,0.914,3.167,0.055c0.348-0.336,0.578-0.776,0.654-1.254h0.765c0,0,0-1.743-0.062-2.82L18.063,8.895z M8.128,12.143
	c-0.438,0.423-1.135,0.41-1.557-0.027C6.15,11.678,6.162,10.981,6.6,10.559c0.438-0.422,1.134-0.409,1.556,0.028
	c0.205,0.212,0.315,0.498,0.308,0.792c-0.008,0.292-0.136,0.567-0.351,0.764H8.128z M12.561,8.016H8.182
	c1.353-1.529,2.468-2.828,4.379-2.958V8.016z M15.984,12.143c-0.438,0.423-1.134,0.41-1.556-0.027s-0.409-1.134,0.028-1.556
	c0.438-0.422,1.134-0.409,1.556,0.028c0.205,0.212,0.316,0.498,0.309,0.792c-0.009,0.292-0.137,0.567-0.352,0.764H15.984z
	 M13.203,8.009v-2.92c1.722-0.026,3.208,1.201,3.508,2.897L13.203,8.009z"/>
<path fill="#F39F7E" stroke="#FFFFFF" stroke-width="0.35" stroke-miterlimit="10" d="M15.003,16.346
	c2.761-0.002,4.999-2.242,4.997-5.003c-0.002-2.762-2.242-4.999-5.003-4.997c-2.76,0.002-4.997,2.24-4.997,5
	C10.003,14.105,12.242,16.344,15.003,16.346z M15.003,7.074c2.357,0.001,4.267,1.914,4.265,4.271
	c-0.001,2.358-1.914,4.266-4.271,4.266c-2.354-0.002-4.264-1.91-4.265-4.266c0.003-2.357,1.915-4.267,4.271-4.268V7.074z"/>
<polygon fill="#F39F7E" stroke="#FFFFFF" stroke-width="0.25" stroke-miterlimit="10" points="15.492,12.197 15.547,12.197 
	15.658,12.205 15.334,7.8 14.547,7.814 14.354,11.038 12.201,11.257 12.213,12.042 "/>
</svg>
