<?xml version="1.0" encoding="utf-8"?>
<!-- Generator: Adobe Illustrator 16.0.0, SVG Export Plug-In . SVG Version: 6.00 Build 0)  -->
<!DOCTYPE svg PUBLIC "-//W3C//DTD SVG 1.1//EN" "http://www.w3.org/Graphics/SVG/1.1/DTD/svg11.dtd">
<svg version="1.1" id="Capa_1" xmlns="http://www.w3.org/2000/svg" xmlns:xlink="http://www.w3.org/1999/xlink" x="0px" y="0px"
	 width="24px" height="24px" viewBox="0 0 24 24" enable-background="new 0 0 24 24" xml:space="preserve">
<circle fill="#FFFFFF" stroke="#FFFFFF" stroke-miterlimit="10" cx="12.001" cy="10.25" r="9"/>
<g id="Capa_1_1_" display="none">
	<circle display="inline" fill="#9A7D22" cx="12" cy="10.4" r="10"/>
</g>
<g id="Capa_3">
	<path fill="#B5343A" d="M11.997,0.001L11.997,0.001c-5.66-0.085-10.315,4.434-10.4,10.093c0,0.044,0,0.089,0,0.133
		c0,3.126,1.311,5.527,3.563,7.753c2.972,2.929,5.813,5.599,5.813,5.599c0.311,0.3,0.736,0.45,1.167,0.412v-0.412l0,0V24
		c0.367-0.079,0.715-0.232,1.021-0.455c0,0,2.741-2.74,5.696-5.652c2.254-2.221,3.547-4.533,3.547-7.677
		C22.376,4.547,17.759-0.027,12.09,0C12.06,0,12.028,0,11.997,0.001z M11.997,19c-4.946,0.003-8.957-4.004-8.959-8.949
		c-0.003-4.945,4.003-8.956,8.948-8.959c4.944-0.002,8.956,4.003,8.958,8.949c0,0.003,0,0.007,0,0.011
		C20.939,14.995,16.936,19,11.991,19H11.997z"/>
</g>
<line fill="none" stroke="#B5343A" stroke-width="0.25" stroke-linecap="round" stroke-linejoin="round" stroke-miterlimit="10" x1="11.999" y1="3.24" x2="11.999" y2="6.971"/>
<path fill="#B5343A" d="M12.324,3.219c0,0,1.043,0.615,2.23-0.368c0,0,0.902,0.026,0.98,0.279c0.081,0.253,0,1.973,0,1.973
	s-0.721-0.573-1.59,0c0,0-0.746,0.531-1.625,0"/>
<rect x="7.449" y="7.32" fill="#B5343A" stroke="#B5343A" stroke-width="0.25" stroke-linecap="round" stroke-linejoin="round" stroke-miterlimit="10" width="9.101" height="6.76"/>
<line fill="none" stroke="#B5343A" stroke-width="0.5" stroke-linecap="round" stroke-linejoin="round" stroke-miterlimit="10" x1="5.5" y1="14.738" x2="18.5" y2="14.738"/>
<path fill="#FFFFFF" d="M12.033,10.933c-0.469,0-0.849,0.148-0.849,0.332v2.918h1.698v-2.918
	C12.882,11.081,12.501,10.933,12.033,10.933z"/>
<g>
	<path fill="#B5343A" stroke="#FFFFFF" stroke-width="0.25" stroke-miterlimit="10" d="M15.001,16.037
		c1.001-0.002,1.904-0.604,2.293-1.526c0.093-0.218-0.009-0.469-0.228-0.562c-0.218-0.092-0.469,0.011-0.561,0.229
		c-0.355,0.834-1.321,1.222-2.155,0.865c-0.835-0.355-1.223-1.321-0.866-2.155c0.196-0.46,0.592-0.806,1.074-0.939
		c0.231-0.049,0.379-0.277,0.329-0.508c-0.05-0.231-0.277-0.378-0.509-0.329c-0.015,0.003-0.03,0.008-0.046,0.013
		c-1.329,0.367-2.109,1.743-1.742,3.072c0.301,1.087,1.291,1.837,2.419,1.833L15.001,16.037z"/>
	<circle fill="#B5343A" stroke="#FFFFFF" stroke-width="0.25" stroke-miterlimit="10" cx="15.408" cy="8.789" r="0.825"/>
	<path fill="#B5343A" stroke="#FFFFFF" stroke-width="0.25" stroke-miterlimit="10" d="M15.821,13.42l1.717,0.081l0.555,2.013
		c0.051,0.186,0.22,0.313,0.412,0.313h0.047l0.546-0.065c0.235-0.014,0.416-0.217,0.401-0.453c-0.014-0.235-0.217-0.416-0.453-0.402
		c-0.015,0.002-0.03,0.003-0.045,0.006l-0.192,0.022l-0.538-1.96c-0.049-0.18-0.208-0.306-0.393-0.314l-1.658-0.076l-0.142-1.386
		l1.302,0.843c0.203,0.121,0.467,0.054,0.587-0.149c0.114-0.193,0.061-0.441-0.123-0.57l-2.05-1.327
		c-0.198-0.128-0.464-0.071-0.592,0.127c-0.053,0.082-0.076,0.179-0.066,0.276l0.271,2.641
		C15.429,13.252,15.606,13.416,15.821,13.42z"/>
</g>
</svg>
