<?xml version="1.0" encoding="utf-8"?>
<!-- Generator: Adobe Illustrator 16.0.0, SVG Export Plug-In . SVG Version: 6.00 Build 0)  -->
<!DOCTYPE svg PUBLIC "-//W3C//DTD SVG 1.1//EN" "http://www.w3.org/Graphics/SVG/1.1/DTD/svg11.dtd">
<svg version="1.1" id="Capa_1" xmlns="http://www.w3.org/2000/svg" xmlns:xlink="http://www.w3.org/1999/xlink" x="0px" y="0px"
	 width="24px" height="24px" viewBox="0 0 24 24" enable-background="new 0 0 24 24" xml:space="preserve">
<circle fill="#FFFFFF" stroke="#FFFFFF" stroke-miterlimit="10" cx="12.001" cy="10.25" r="9"/>
<g id="Capa_1_1_" display="none">
	<circle display="inline" fill="#9A7D22" cx="12" cy="10.4" r="10"/>
</g>
<g id="Capa_3">
	<path d="M11.997,0.001L11.997,0.001c-5.66-0.085-10.315,4.434-10.4,10.093c0,0.044,0,0.089,0,0.133
		c0,3.126,1.311,5.527,3.563,7.753c2.972,2.929,5.813,5.599,5.813,5.599c0.311,0.3,0.736,0.45,1.167,0.412v-0.412l0,0V24
		c0.367-0.079,0.715-0.232,1.021-0.455c0,0,2.741-2.74,5.696-5.652c2.254-2.221,3.547-4.533,3.547-7.677
		C22.376,4.547,17.759-0.027,12.09,0C12.06,0,12.028,0,11.997,0.001z M11.997,19c-4.946,0.003-8.957-4.004-8.959-8.949
		c-0.003-4.945,4.003-8.956,8.948-8.959c4.944-0.002,8.956,4.003,8.958,8.949c0,0.003,0,0.007,0,0.011
		C20.939,14.995,16.936,19,11.991,19H11.997z"/>
</g>
<g>
	<path d="M16.854,7.766c-0.087-0.047-0.192-0.047-0.279,0l-2.048,1.012l-0.026-0.766c-0.005-0.164-0.141-0.293-0.306-0.289
		c-0.044,0.001-0.087,0.012-0.126,0.032l-2.048,1.012l-0.027-0.766c-0.004-0.164-0.141-0.293-0.305-0.289
		c-0.044,0.001-0.088,0.012-0.127,0.032L9.759,8.642L9.563,5.493C9.556,5.231,9.346,5.021,9.084,5.013H7.529
		C7.268,5.019,7.058,5.228,7.051,5.489L6.5,14.538c-0.007,0.13,0.035,0.257,0.118,0.357c0.089,0.106,0.221,0.168,0.361,0.169h10.04
		c0.14-0.001,0.271-0.063,0.361-0.169c0.085-0.101,0.127-0.229,0.118-0.361c-0.148-2.907-0.485-6.489-0.485-6.533
		C17.004,7.901,16.943,7.813,16.854,7.766z M7.104,14.467L7.64,5.624h1.349l0.219,3.518c0.008,0.163,0.147,0.29,0.311,0.281
		C9.562,9.421,9.603,9.41,9.641,9.391l1.794-0.89l0.027,0.769c0.004,0.164,0.141,0.293,0.304,0.289
		c0.044-0.001,0.088-0.013,0.127-0.032l2.048-1.012l0.026,0.766c0.005,0.164,0.141,0.293,0.306,0.289
		c0.044-0.001,0.087-0.012,0.126-0.033l2.067-1.032c0.088,1.15,0.337,3.635,0.455,5.97L7.104,14.467z"/>
	<path d="M11.05,10.801H9.87c-0.165,0-0.298,0.133-0.298,0.298c0,0.165,0.134,0.299,0.298,0.299l0,0h1.184
		c0.165,0,0.298-0.134,0.298-0.299c0-0.165-0.134-0.298-0.298-0.298H11.05z"/>
	<path d="M13.382,10.801h-1.185c-0.165,0-0.299,0.133-0.299,0.298c0,0.165,0.134,0.299,0.299,0.299l0,0h1.185
		c0.164,0,0.298-0.134,0.298-0.299C13.68,10.934,13.546,10.801,13.382,10.801z"/>
	<path d="M15.711,10.801h-1.184c-0.164,0-0.299,0.133-0.299,0.298c0,0.165,0.135,0.299,0.299,0.299l0,0h1.184
		c0.166,0,0.299-0.134,0.299-0.299C16.01,10.934,15.877,10.801,15.711,10.801z"/>
</g>
</svg>
